<svg xmlns="http://www.w3.org/2000/svg" viewBox="0 0 200 200"><defs><linearGradient id="g" x1="0" y1="0" x2="1" y2="1"><stop stop-color="#ffe5ef"/><stop offset="1" stop-color="#f5a9c9"/></linearGradient></defs><rect width="200" height="200" rx="48" fill="url(#g)"/><circle cx="100" cy="91" r="53" fill="#f1c4ab"/><path d="M45 92c-9-56 28-76 58-76 44 0 65 31 51 78-10-20-27-31-48-31-20 0-43 11-61 29z" fill="#825039"/><circle cx="80" cy="96" r="5" fill="#2a1c25"/><circle cx="120" cy="96" r="5" fill="#2a1c25"/><path d="M84 119q16 12 32 0" fill="none" stroke="#8d4f59" stroke-width="5" stroke-linecap="round"/><path d="M35 200c5-45 31-65 65-65s60 20 65 65" fill="#fff" opacity=".95"/></svg>